<svg width="20" height="20" viewBox="0 0 20 20" fill="none" xmlns="http://www.w3.org/2000/svg">
<path d="M14.0833 16.5334H4.28335C3.6336 16.5334 3.01043 16.2752 2.55093 15.8158C2.09151 15.3563 1.83335 14.7332 1.83335 14.0834V7.55004C1.83335 7.33346 1.74735 7.12571 1.59418 6.97254C1.44101 6.81946 1.23326 6.73337 1.01668 6.73337C0.800095 6.73337 0.592346 6.81946 0.439179 6.97254C0.286012 7.12571 0.200012 7.33346 0.200012 7.55004V14.0834C0.200012 15.1664 0.630179 16.205 1.39601 16.9707C2.16176 17.7365 3.20035 18.1667 4.28335 18.1667H14.0833C14.2999 18.1667 14.5077 18.0806 14.6608 17.9275C14.814 17.7745 14.9 17.5666 14.9 17.35C14.9 17.1335 14.8139 16.9257 14.6608 16.7725C14.5078 16.6194 14.2999 16.5334 14.0833 16.5334ZM17.35 1.83337H5.91668C5.26693 1.83337 4.64376 2.09154 4.18426 2.55096C3.72485 3.01046 3.46668 3.63362 3.46668 4.28337V12.45C3.46668 13.0999 3.72485 13.723 4.18426 14.1825C4.64376 14.6419 5.26693 14.9 5.91668 14.9H17.35C17.9998 14.9 18.6229 14.6419 19.0824 14.1825C19.5418 13.723 19.8 13.0999 19.8 12.45V4.28337C19.8 3.63362 19.5418 3.01046 19.0824 2.55096C18.6229 2.09154 17.9998 1.83337 17.35 1.83337ZM17.0152 3.46671L12.2132 8.26871C12.1373 8.34521 12.0469 8.40596 11.9474 8.44746C11.8478 8.48896 11.7412 8.51029 11.6333 8.51029C11.5255 8.51029 11.4188 8.48896 11.3193 8.44746C11.2198 8.40596 11.1294 8.34521 11.0535 8.26871L6.25151 3.46671H17.0152ZM18.1667 12.45C18.1667 12.6666 18.0806 12.8744 17.9275 13.0275C17.7744 13.1807 17.5666 13.2667 17.35 13.2667H5.91668C5.7001 13.2667 5.49235 13.1806 5.33918 13.0275C5.1861 12.8744 5.10001 12.6666 5.10001 12.45V4.58554L9.90201 9.38754C10.3614 9.84637 10.9841 10.1041 11.6333 10.1041C12.2826 10.1041 12.9053 9.84637 13.3647 9.38754L18.1667 4.58554V12.45Z" fill="black"/>
</svg>
