<svg width="26" height="24" viewBox="0 0 26 24" fill="none" xmlns="http://www.w3.org/2000/svg">
<path d="M19.3284 4.15204C19.0294 4.15204 18.737 4.23643 18.4884 4.39469C18.2398 4.55296 18.046 4.77786 17.9314 5.04092C17.817 5.30408 17.7872 5.59357 17.8455 5.87296C17.9039 6.15224 18.0478 6.40888 18.2593 6.6102C18.4707 6.81163 18.7401 6.94878 19.0334 7.00429C19.3268 7.0599 19.6307 7.03143 19.907 6.92235C20.1834 6.81337 20.4194 6.62878 20.5856 6.39204C20.7516 6.1552 20.8404 5.87684 20.8404 5.59204C20.8404 5.2101 20.6811 4.84378 20.3975 4.57378C20.114 4.30367 19.7295 4.15204 19.3284 4.15204ZM25.1244 7.05602C25.0999 6.06041 24.9042 5.07531 24.5448 4.14C24.2244 3.3398 23.7258 2.6151 23.0832 2.01602C22.4593 1.40092 21.6968 0.92898 20.853 0.63602C19.8736 0.283367 18.838 0.0926531 17.7912 0.0720408C16.4556 1.14039e-08 16.0272 0 12.6 0C9.17282 0 8.74436 1.14039e-08 7.40882 0.0720408C6.36193 0.0926531 5.3265 0.283367 4.347 0.63602C3.50496 0.931939 2.74296 1.40347 2.11682 2.01602C1.47096 2.6102 0.975429 3.33653 0.667821 4.14C0.297536 5.07286 0.0972857 6.05898 0.0756429 7.05602C1.19741e-08 8.32796 0 8.73602 0 12C0 15.264 1.19741e-08 15.672 0.0756429 16.944C0.0972857 17.9409 0.297536 18.9272 0.667821 19.86C0.975429 20.6636 1.47096 21.3898 2.11682 21.984C2.74296 22.5965 3.50496 23.0681 4.347 23.364C5.3265 23.7165 6.36193 23.9073 7.40882 23.928C8.74436 24 9.17282 24 12.6 24C16.0272 24 16.4556 24 17.7912 23.928C18.838 23.9073 19.8736 23.7165 20.853 23.364C21.6968 23.0709 22.4593 22.5991 23.0832 21.984C23.7286 21.3871 24.2277 20.6618 24.5448 19.86C24.9042 18.9247 25.0999 17.9397 25.1244 16.944C25.1244 15.672 25.2 15.264 25.2 12C25.2 8.73602 25.2 8.32796 25.1244 7.05602ZM22.8564 16.8C22.8472 17.5617 22.7024 18.3164 22.428 19.032C22.2268 19.5543 21.9038 20.0261 21.483 20.412C21.0743 20.8086 20.5798 21.1157 20.034 21.312C19.2827 21.5734 18.4903 21.7112 17.6904 21.72C16.4304 21.78 15.9642 21.792 12.6504 21.792C9.33654 21.792 8.87036 21.792 7.61036 21.72C6.77989 21.7348 5.95296 21.6131 5.166 21.36C4.64411 21.1538 4.17236 20.8473 3.78 20.46C3.36182 20.0745 3.04264 19.6022 2.84764 19.08C2.53993 18.3543 2.36936 17.5822 2.34364 16.8C2.34364 15.6 2.268 15.156 2.268 12C2.268 8.84398 2.268 8.4 2.34364 7.2C2.34921 6.42133 2.49846 5.64959 2.78464 4.92C3.00643 4.41347 3.34693 3.96204 3.78 3.6C4.16282 3.18745 4.63586 2.85969 5.166 2.64C5.934 2.37602 6.74346 2.23806 7.56 2.23204C8.82 2.23204 9.28618 2.16 12.6 2.16C15.9138 2.16 16.38 2.16 17.64 2.23204C18.4398 2.24071 19.2323 2.37867 19.9836 2.64C20.5561 2.84235 21.0701 3.17143 21.483 3.6C21.8959 3.96857 22.2186 4.41929 22.428 4.92C22.7081 5.65071 22.853 6.42214 22.8564 7.2C22.9194 8.4 22.932 8.84398 22.932 12C22.932 15.156 22.9194 15.6 22.8564 16.8ZM12.6 5.84398C11.3221 5.84643 10.0737 6.20949 9.01232 6.88735C7.95107 7.5652 7.12457 8.52745 6.63718 9.65255C6.14989 10.7776 6.02368 12.015 6.2745 13.2083C6.52543 14.4016 7.14204 15.4974 8.04643 16.3572C8.95093 17.2169 10.1027 17.802 11.3563 18.0386C12.6098 18.2752 13.9088 18.1526 15.0891 17.6862C16.2695 17.22 17.2783 16.4309 17.9879 15.4188C18.6977 14.4067 19.0765 13.217 19.0765 12C19.0781 11.1901 18.9116 10.388 18.5865 9.63959C18.2615 8.89122 17.7844 8.21143 17.1825 7.63929C16.5806 7.06714 15.8658 6.61408 15.0795 6.30592C14.293 5.99786 13.4504 5.84082 12.6 5.84398ZM12.6 15.996C11.7702 15.996 10.959 15.7616 10.269 15.3226C9.579 14.8835 9.04114 14.2594 8.72357 13.5292C8.406 12.7991 8.32296 11.9956 8.48486 11.2204C8.64675 10.4453 9.04629 9.73316 9.63311 9.17439C10.2198 8.61561 10.9676 8.235 11.7814 8.08082C12.5954 7.92663 13.439 8.00571 14.2056 8.30816C14.9724 8.61061 15.6276 9.12286 16.0887 9.78C16.5497 10.4371 16.7958 11.2097 16.7958 12C16.7958 12.5248 16.6873 13.0444 16.4764 13.5292C16.2656 14.0141 15.9565 14.4545 15.5669 14.8256C15.1772 15.1967 14.7148 15.491 14.2056 15.6918C13.6966 15.8927 13.151 15.996 12.6 15.996Z" fill="#D4D4D4"/>
</svg>
