<svg width="24" height="24" viewBox="0 0 24 24" fill="none" xmlns="http://www.w3.org/2000/svg">
<g clip-path="url(#clip0_18_52)">
<path d="M21.9606 0.240164H2.03937C1.81547 0.236964 1.59307 0.278064 1.38497 0.360864C1.17697 0.443764 0.987269 0.566764 0.826669 0.722864C0.666169 0.879064 0.537969 1.06526 0.449469 1.27096C0.360869 1.47666 0.313769 1.69786 0.310669 1.92176V22.0782C0.313769 22.3021 0.360869 22.5233 0.449469 22.729C0.538069 22.9347 0.666169 23.1209 0.826669 23.2771C0.987269 23.4333 1.17697 23.5563 1.38497 23.6391C1.59307 23.722 1.81547 23.763 2.03937 23.7598H21.9606C22.1845 23.763 22.4069 23.722 22.6149 23.6391C22.8231 23.5563 23.0127 23.4333 23.1733 23.2771C23.3338 23.1209 23.462 22.9346 23.5505 22.729C23.6391 22.5233 23.6862 22.3021 23.6893 22.0782V1.92176C23.6862 1.69786 23.6391 1.47676 23.5505 1.27096C23.462 1.06526 23.3338 0.879064 23.1733 0.722864C23.0127 0.566764 22.8231 0.443664 22.6149 0.360864C22.4069 0.278064 22.1845 0.236964 21.9606 0.240164ZM7.40187 19.9261H3.87387V9.34226H7.40187V19.9261ZM5.63787 7.86046C5.15137 7.86046 4.68477 7.66726 4.34067 7.32316C3.99667 6.97916 3.80337 6.51256 3.80337 6.02596C3.80337 5.53946 3.99667 5.07276 4.34067 4.72876C4.68477 4.38466 5.15137 4.19146 5.63787 4.19146C5.89627 4.16216 6.15787 4.18776 6.40567 4.26656C6.65347 4.34536 6.88177 4.47566 7.07567 4.64886C7.26967 4.82206 7.42477 5.03426 7.53107 5.27156C7.63727 5.50886 7.69227 5.76596 7.69227 6.02596C7.69227 6.28596 7.63727 6.54306 7.53107 6.78036C7.42477 7.01766 7.26967 7.22986 7.07567 7.40306C6.88177 7.57626 6.65347 7.70656 6.40567 7.78536C6.15787 7.86426 5.89627 7.88976 5.63787 7.86046ZM20.126 19.9261H16.5981V14.2461C16.5981 12.8232 16.0924 11.8942 14.8106 11.8942C14.4139 11.8971 14.0276 12.0215 13.7038 12.2507C13.38 12.4799 13.1342 12.8028 12.9996 13.176C12.9075 13.4524 12.8676 13.7435 12.882 14.0344V19.9144H9.35397V9.33046H12.882V10.824C13.2024 10.2679 13.6686 9.80966 14.2301 9.49886C14.7918 9.18806 15.4275 9.03636 16.0689 9.05996C18.4209 9.05996 20.126 10.577 20.126 13.8345V19.9261Z" fill="#D4D4D4"/>
</g>
<defs>
<clipPath id="clip0_18_52">
<rect width="24" height="24" fill="white"/>
</clipPath>
</defs>
</svg>
