<svg width="20" height="20" viewBox="0 0 20 20" fill="none" xmlns="http://www.w3.org/2000/svg">
<path d="M2.5 3.98148C2.5 3.58857 2.65608 3.21175 2.93392 2.93392C3.21175 2.65608 3.58857 2.5 3.98148 2.5H6.41111C6.56651 2.50012 6.71794 2.54911 6.84397 2.64004C6.96999 2.73097 7.06423 2.85923 7.11333 3.00667L8.22296 6.33481C8.27919 6.50395 8.27254 6.6877 8.20423 6.85233C8.13593 7.01696 8.01056 7.15145 7.85111 7.23111L6.17926 8.06815C6.99875 9.88188 8.45145 11.3346 10.2652 12.1541L11.1022 10.4822C11.1819 10.3228 11.3164 10.1974 11.481 10.1291C11.6456 10.0608 11.8294 10.0541 11.9985 10.1104L15.3267 11.22C15.4742 11.2691 15.6026 11.3635 15.6935 11.4897C15.7845 11.6158 15.8334 11.7674 15.8333 11.923V14.3519C15.8333 14.7448 15.6772 15.1216 15.3994 15.3994C15.1216 15.6772 14.7448 15.8333 14.3519 15.8333H13.6111C7.47481 15.8333 2.5 10.8585 2.5 4.72222V3.98148Z" stroke="#252525" stroke-width="2" stroke-linecap="round" stroke-linejoin="round"/>
</svg>
