<svg width="24" height="24" viewBox="0 0 24 24" fill="none" xmlns="http://www.w3.org/2000/svg">
<g clip-path="url(#clip0_18_68)">
<path d="M23.76 4.72051C22.876 5.10401 21.9412 5.35751 20.9846 5.47321C21.9939 4.87031 22.7502 3.92181 23.1132 2.80361C22.1649 3.36821 21.1267 3.76601 20.0438 3.97961C19.32 3.19471 18.3563 2.67231 17.3035 2.49421C16.2509 2.31611 15.1687 2.49241 14.2271 2.99551C13.2854 3.49871 12.5373 4.30011 12.1002 5.27421C11.6631 6.24831 11.5617 7.33991 11.8118 8.37791C9.89419 8.28091 8.01859 7.78161 6.30659 6.91241C4.59459 6.04331 3.08459 4.82371 1.87459 3.33281C1.45029 4.07391 1.22729 4.91321 1.22779 5.76721C1.22629 6.56021 1.42099 7.34141 1.79439 8.04101C2.16779 8.74071 2.70839 9.33721 3.36819 9.77741C2.60139 9.75641 1.85099 9.55071 1.18079 9.17761V9.23641C1.18659 10.3476 1.57589 11.4227 2.28309 12.2798C2.99019 13.137 3.97179 13.7236 5.06159 13.9404C4.64209 14.068 4.20649 14.1354 3.76799 14.1403C3.46449 14.1368 3.16169 14.1092 2.86249 14.058C3.17279 15.0139 3.77339 15.8492 4.58069 16.4478C5.38799 17.0463 6.36179 17.3784 7.36659 17.3978C5.66979 18.7328 3.57499 19.4615 1.41599 19.4676C1.02289 19.4689 0.63009 19.4453 0.23999 19.397C2.44429 20.8202 5.01319 21.5758 7.63699 21.5726C9.44769 21.5915 11.244 21.2492 12.9209 20.566C14.5979 19.8828 16.1219 18.8723 17.404 17.5936C18.686 16.3149 19.7004 14.7935 20.3879 13.1183C21.0754 11.443 21.4221 9.64761 21.408 7.83691V7.21361C22.3308 6.52551 23.1267 5.68181 23.76 4.72051Z" fill="#D4D4D4"/>
</g>
<defs>
<clipPath id="clip0_18_68">
<rect width="24" height="24" fill="white"/>
</clipPath>
</defs>
</svg>
