<svg width="20" height="20" viewBox="0 0 20 20" fill="none" xmlns="http://www.w3.org/2000/svg">
<g clip-path="url(#clip0_18_28)">
<path d="M14.5482 11.9697C14.3525 11.8719 13.0801 11.2846 12.8843 11.1867C12.6886 11.0889 12.4928 11.0889 12.2971 11.2846C12.1013 11.4804 11.7097 12.0676 11.514 12.2634C11.4161 12.4591 11.2204 12.4591 11.0246 12.3612C10.3395 12.0676 9.65431 11.6761 9.06706 11.1867C8.57764 10.6973 8.08831 10.1101 7.69681 9.5228C7.59889 9.32705 7.69681 9.1313 7.79464 9.03339C7.89256 8.93555 7.99039 8.7398 8.18614 8.64189C8.28406 8.54405 8.38189 8.3483 8.38189 8.25039C8.47981 8.15255 8.47981 7.9568 8.38189 7.85889C8.28406 7.76105 7.79464 6.58647 7.59889 6.09705C7.50106 5.41197 7.30522 5.41197 7.10947 5.41197H6.62014C6.42439 5.41197 6.13072 5.60772 6.03281 5.70555C5.44556 6.29289 5.15197 6.97797 5.15197 7.76105C5.24981 8.64189 5.54347 9.5228 6.13072 10.3058C7.20739 11.8719 8.57764 13.1443 10.2416 13.9273C10.731 14.1231 11.1225 14.3188 11.6119 14.4167C12.1012 14.6125 12.5906 14.6125 13.1779 14.5146C13.8631 14.4167 14.4503 13.9273 14.8418 13.3401C15.0376 12.9486 15.0376 12.5571 14.9397 12.1655L14.5482 11.9697ZM16.9951 3.06289C13.1779 -0.754361 7.01164 -0.754361 3.19439 3.06289C0.0623067 6.19497 -0.524943 10.991 1.62839 14.8082L0.258057 19.8L5.44556 18.4297C6.91372 19.2127 8.47981 19.6042 10.0458 19.6042C15.4291 19.6042 19.7357 15.2976 19.7357 9.9143C19.8336 7.36947 18.757 4.92255 16.9951 3.06289ZM14.3525 16.7658C13.0801 17.5488 11.6119 18.0381 10.0458 18.0381C8.57764 18.0381 7.20739 17.6466 5.93497 16.9616L5.64131 16.7657L2.60714 17.5488L3.39014 14.6125L3.19439 14.3188C0.845307 10.4037 2.01989 5.5098 5.83714 3.06289C9.65431 0.615972 14.5482 1.88839 16.8973 5.60772C19.2463 9.42489 18.1697 14.4168 14.3525 16.7658Z" fill="black"/>
</g>
<defs>
<clipPath id="clip0_18_28">
<rect width="20" height="20" fill="white"/>
</clipPath>
</defs>
</svg>
